<?xml version="1.0" standalone="no"?><!DOCTYPE svg PUBLIC "-//W3C//DTD SVG 1.1//EN" "http://www.w3.org/Graphics/SVG/1.1/DTD/svg11.dtd"><svg t="1603165476469" class="icon" viewBox="0 0 1024 1024" version="1.1" xmlns="http://www.w3.org/2000/svg" p-id="18120" xmlns:xlink="http://www.w3.org/1999/xlink" width="200" height="200"><defs><style type="text/css"></style></defs><path d="M512 1024C229.205333 1024 0 794.794667 0 512S229.205333 0 512 0s512 229.205333 512 512-229.205333 512-512 512z m194.730667-791.04a48.853333 48.853333 0 0 0-37.248-8.106667c-13.44 2.304-24.064 8.917333-31.829334 19.84-7.68 10.837333-10.581333 24.32-8.149333 37.376 2.346667 13.482667 9.216 24.149333 20.565333 31.914667a242.346667 242.346667 0 0 1 78.421334 89.173333c18.517333 35.456 28.16 74.88 28.032 114.901334 0 34.261333-6.613333 66.602667-19.84 96.938666a255.744 255.744 0 0 1-53.589334 79.445334 255.530667 255.530667 0 0 1-79.232 53.76 238.762667 238.762667 0 0 1-96.725333 19.84 238.72 238.72 0 0 1-96.64-19.84 249.301333 249.301333 0 0 1-132.437333-133.205334 243.84 243.84 0 0 1-19.413334-96.896c0-40.021333 8.704-77.397333 26.026667-112.213333A241.749333 241.749333 0 0 1 359.552 317.866667c10.88-8.32 17.365333-19.2 19.413333-32.725334a46.677333 46.677333 0 0 0-9.301333-36.608 48.768 48.768 0 0 0-32.213333-19.456c-13.098667-2.133333-26.453333 1.28-36.949334 9.386667A376.96 376.96 0 0 0 241.493333 294.485333a333.397333 333.397333 0 0 0-44.202666 66.986667 362.837333 362.837333 0 0 0-27.605334 75.52 340.906667 340.906667 0 0 0-9.685333 81.066667c0 48.256 9.045333 93.525333 27.221333 135.893333a347.306667 347.306667 0 0 0 74.496 110.592 359.808 359.808 0 0 0 110.677334 74.752c42.24 18.474667 87.168 27.648 134.741333 27.648 48.170667 0 93.44-9.173333 135.552-27.648a354.176 354.176 0 0 0 110.293333-74.752 355.541333 355.541333 0 0 0 74.581334-110.592 337.578667 337.578667 0 0 0 27.605333-135.893333c0-55.936-13.653333-111.018667-39.68-160.512a369.28 369.28 0 0 0-46.549333-68.138667 347.562667 347.562667 0 0 0-62.165334-56.448V232.96z m-209.792 289.92c13.994667 0 25.770667-4.821333 35.328-14.421333 9.6-9.557333 14.378667-21.12 14.378666-34.645334V177.834667c0-13.482667-4.778667-25.173333-14.378666-35.072A47.317333 47.317333 0 0 0 496.981333 128a46.506667 46.506667 0 0 0-34.56 14.762667 48.64 48.64 0 0 0-14.421333 35.072v295.978666c0 13.525333 4.821333 25.088 14.336 34.688 9.6 9.6 21.12 14.378667 34.56 14.378667z" p-id="18121"></path></svg>