<?xml version="1.0" standalone="no"?><!DOCTYPE svg PUBLIC "-//W3C//DTD SVG 1.1//EN" "http://www.w3.org/Graphics/SVG/1.1/DTD/svg11.dtd"><svg t="1603165401838" class="icon" viewBox="0 0 1024 1024" version="1.1" xmlns="http://www.w3.org/2000/svg" p-id="14101" xmlns:xlink="http://www.w3.org/1999/xlink" width="200" height="200"><defs><style type="text/css"></style></defs><path d="M145.036102 857.786182c-93.090909-94.208-145.221818-221.370182-145.035637-353.745455C0.000465 225.652364 225.652829 0 503.994647 0c278.341818 0 503.994182 225.652364 503.994182 503.994182 0 137.867636-55.342545 262.749091-144.989091 353.745454a502.458182 502.458182 0 0 1-359.005091 150.248728c-134.981818 0.186182-264.378182-53.992727-358.958545-150.202182z m29.602909-66.885818a378.88 378.88 0 0 1 229.329454-179.013819 201.588364 201.588364 0 1 1 200.052364 0 378.973091 378.973091 0 0 1 229.376 179.013819 435.106909 435.106909 0 0 0 107.426909-286.906182 436.782545 436.782545 0 0 0-436.829091-436.782546 436.782545 436.782545 0 0 0-436.782545 436.782546 435.106909 435.106909 0 0 0 107.426909 286.906182z" p-id="14102"></path></svg>
