<?xml version="1.0" standalone="no"?><!DOCTYPE svg PUBLIC "-//W3C//DTD SVG 1.1//EN" "http://www.w3.org/Graphics/SVG/1.1/DTD/svg11.dtd"><svg t="1603165361334" class="icon" viewBox="0 0 1024 1024" version="1.1" xmlns="http://www.w3.org/2000/svg" p-id="12185" xmlns:xlink="http://www.w3.org/1999/xlink" width="200" height="200"><defs><style type="text/css"></style></defs><path d="M844.582421 616.999935l134.117009 71.211792c18.331748 9.254008 24.941754 32.300893 15.665713 50.302141-3.966003 6.896439-9.320108 12.42681-15.665713 15.335212l-449.061732 240.383862a38.558365 38.558365 0 0 1-35.319462 0L45.322604 753.871114c-18.331748-9.254008-24.98582-32.27886-15.665713-50.544508 3.67957-6.632039 9.254008-11.655643 15.665713-15.092846l133.808542-71.211791-133.808542-71.982959c-18.331748-9.804841-24.98582-32.300893-15.665713-50.830941 3.67957-6.323572 9.254008-11.082776 15.665713-14.806412l133.808542-71.498225-133.808542-72.004992a36.927897 36.927897 0 0 1-15.665713-49.77334c3.67957-6.896439 9.254008-12.16241 15.665713-15.599613L494.318236 29.877224a37.787197 37.787197 0 0 1 35.319462 0l449.061732 240.626229a37.500764 37.500764 0 0 1 15.665713 50.280108c-3.966003 6.654072-9.320108 11.655643-15.665713 15.092846l-134.117009 72.004992 134.117009 71.498224a37.522797 37.522797 0 0 1 15.665713 50.302141c-3.966003 6.610005-9.320108 11.89801-15.665713 15.335213l-134.117009 71.982958z m-332.703604 93.22311c123.4749-65.94582 247.236235-131.869607 370.424701-198.300162l-116.292028-62.20015-236.373792 126.295169c-3.966003 2.357569-7.95404 3.67957-11.942077 4.230404h-0.815234l-3.437202 0.506767h-2.930436l-3.150769-0.506767h-1.079635a33.600861 33.600861 0 0 1-11.964109-4.230404L258.010543 449.722733l-116.292028 62.20015c123.188467 66.430554 247.192168 132.354341 370.160302 198.300162z" p-id="12186"></path></svg>